<svg width="862" height="228" viewBox="0 0 862 228" fill="none" xmlns="http://www.w3.org/2000/svg">
<path d="M46.003 107.6C46.003 102.16 47.091 97.424 49.267 93.392C51.443 89.296 54.451 86.128 58.291 83.888C62.195 81.648 66.643 80.528 71.635 80.528C78.099 80.528 83.411 82.096 87.571 85.232C91.795 88.368 94.579 92.72 95.923 98.288H86.515C85.619 95.088 83.859 92.56 81.235 90.704C78.675 88.848 75.475 87.92 71.635 87.92C66.643 87.92 62.611 89.648 59.539 93.104C56.467 96.496 54.931 101.328 54.931 107.6C54.931 113.936 56.467 118.832 59.539 122.288C62.611 125.744 66.643 127.472 71.635 127.472C75.475 127.472 78.675 126.576 81.235 124.784C83.795 122.992 85.555 120.432 86.515 117.104H95.923C94.515 122.48 91.699 126.8 87.475 130.064C83.251 133.264 77.971 134.864 71.635 134.864C66.643 134.864 62.195 133.744 58.291 131.504C54.451 129.264 51.443 126.096 49.267 122C47.091 117.904 46.003 113.104 46.003 107.6ZM154.236 81.392V134H145.5V126.224C143.836 128.912 141.5 131.024 138.492 132.56C135.548 134.032 132.284 134.768 128.7 134.768C124.604 134.768 120.924 133.936 117.66 132.272C114.396 130.544 111.804 127.984 109.884 124.592C108.028 121.2 107.1 117.072 107.1 112.208V81.392H115.74V111.056C115.74 116.24 117.052 120.24 119.676 123.056C122.3 125.808 125.884 127.184 130.428 127.184C135.1 127.184 138.78 125.744 141.468 122.864C144.156 119.984 145.5 115.792 145.5 110.288V81.392H154.236ZM177.722 89.936C179.258 86.928 181.434 84.592 184.25 82.928C187.13 81.264 190.618 80.432 194.714 80.432V89.456H192.41C182.618 89.456 177.722 94.768 177.722 105.392V134H168.986V81.392H177.722V89.936ZM213.534 89.936C215.07 86.928 217.246 84.592 220.062 82.928C222.942 81.264 226.43 80.432 230.526 80.432V89.456H228.222C218.43 89.456 213.534 94.768 213.534 105.392V134H204.798V81.392H213.534V89.936ZM288.611 105.68C288.611 107.344 288.515 109.104 288.323 110.96H246.275C246.595 116.144 248.355 120.208 251.555 123.152C254.819 126.032 258.755 127.472 263.363 127.472C267.139 127.472 270.275 126.608 272.771 124.88C275.331 123.088 277.123 120.72 278.147 117.776H287.555C286.147 122.832 283.331 126.96 279.107 130.16C274.883 133.296 269.635 134.864 263.363 134.864C258.371 134.864 253.891 133.744 249.923 131.504C246.019 129.264 242.947 126.096 240.707 122C238.467 117.84 237.347 113.04 237.347 107.6C237.347 102.16 238.435 97.392 240.611 93.296C242.787 89.2 245.827 86.064 249.731 83.888C253.699 81.648 258.243 80.528 263.363 80.528C268.355 80.528 272.771 81.616 276.611 83.792C280.451 85.968 283.395 88.976 285.443 92.816C287.555 96.592 288.611 100.88 288.611 105.68ZM279.587 103.856C279.587 100.528 278.851 97.68 277.379 95.312C275.907 92.88 273.891 91.056 271.331 89.84C268.835 88.56 266.051 87.92 262.979 87.92C258.563 87.92 254.787 89.328 251.651 92.144C248.579 94.96 246.819 98.864 246.371 103.856H279.587ZM325.774 80.432C332.174 80.432 337.358 82.384 341.326 86.288C345.294 90.128 347.278 95.696 347.278 102.992V134H338.638V104.24C338.638 98.992 337.326 94.992 334.702 92.24C332.078 89.424 328.494 88.016 323.95 88.016C319.342 88.016 315.662 89.456 312.91 92.336C310.222 95.216 308.878 99.408 308.878 104.912V134H300.142V81.392H308.878V88.88C310.606 86.192 312.942 84.112 315.886 82.64C318.894 81.168 322.19 80.432 325.774 80.432ZM372.204 88.592V119.6C372.204 122.16 372.748 123.984 373.836 125.072C374.924 126.096 376.812 126.608 379.5 126.608H385.932V134H378.06C373.196 134 369.548 132.88 367.116 130.64C364.684 128.4 363.468 124.72 363.468 119.6V88.592H356.652V81.392H363.468V68.144H372.204V81.392H385.932V88.592H372.204Z" fill="white"/>
<path d="M632.742 11.612C647.787 11.612 659.722 16.169 668.547 25.283C677.516 34.397 682.001 47.0553 682.001 63.258V134H645.111V68.249C645.111 60.437 643.013 54.4333 638.818 50.238C634.767 45.898 629.125 43.728 621.892 43.728C614.658 43.728 608.944 45.898 604.749 50.238C600.698 54.4333 598.673 60.437 598.673 68.249V134H561.783V68.249C561.783 60.437 559.685 54.4333 555.49 50.238C551.439 45.898 545.797 43.728 538.564 43.728C531.33 43.728 525.616 45.898 521.421 50.238C517.37 54.4333 515.345 60.437 515.345 68.249V134H478.238V12.914H515.345V28.104C519.106 23.0407 524.025 19.0623 530.101 16.169C536.177 13.131 543.048 11.612 550.716 11.612C559.83 11.612 567.931 13.565 575.02 17.471C582.253 21.377 587.895 26.9467 591.946 34.18C596.141 27.5253 601.855 22.1003 609.089 17.905C616.322 13.7097 624.206 11.612 632.742 11.612ZM822.095 71.504C822.095 74.976 821.878 78.5927 821.444 82.354H737.465C738.043 89.8767 740.43 95.6633 744.626 99.714C748.966 103.62 754.246 105.573 760.467 105.573C769.725 105.573 776.163 101.667 779.78 93.855H819.274C817.248 101.812 813.559 108.973 808.207 115.338C802.999 121.703 796.416 126.694 788.46 130.311C780.503 133.928 771.606 135.736 761.769 135.736C749.906 135.736 739.345 133.204 730.087 128.141C720.828 123.078 713.595 115.844 708.387 106.441C703.179 97.0377 700.575 86.043 700.575 73.457C700.575 60.871 703.106 49.8763 708.17 40.473C713.378 31.0697 720.611 23.8363 729.87 18.773C739.128 13.7097 749.761 11.178 761.769 11.178C773.487 11.178 783.903 13.6373 793.017 18.556C802.131 23.4747 809.219 30.491 814.283 39.605C819.491 48.719 822.095 59.352 822.095 71.504ZM784.12 61.739C784.12 55.3737 781.95 50.3103 777.61 46.549C773.27 42.7877 767.845 40.907 761.335 40.907C755.114 40.907 749.834 42.7153 745.494 46.332C741.298 49.9487 738.694 55.0843 737.682 61.739H784.12Z" fill="white"/>
<path d="M154.314 198.53C154.314 199.43 154.019 200.155 153.429 200.705C152.839 201.255 151.954 201.53 150.774 201.53H148.659V206H147.609V195.515H150.774C151.944 195.515 152.824 195.79 153.414 196.34C154.014 196.89 154.314 197.62 154.314 198.53ZM150.774 200.63C152.414 200.63 153.234 199.93 153.234 198.53C153.234 197.83 153.039 197.3 152.649 196.94C152.259 196.58 151.634 196.4 150.774 196.4H148.659V200.63H150.774ZM159.661 206.12C158.891 206.12 158.196 205.95 157.576 205.61C156.966 205.26 156.481 204.77 156.121 204.14C155.771 203.5 155.596 202.755 155.596 201.905C155.596 201.055 155.776 200.315 156.136 199.685C156.496 199.045 156.986 198.555 157.606 198.215C158.226 197.865 158.921 197.69 159.691 197.69C160.461 197.69 161.156 197.865 161.776 198.215C162.406 198.555 162.896 199.045 163.246 199.685C163.606 200.315 163.786 201.055 163.786 201.905C163.786 202.745 163.606 203.485 163.246 204.125C162.886 204.765 162.391 205.26 161.761 205.61C161.131 205.95 160.431 206.12 159.661 206.12ZM159.661 205.205C160.201 205.205 160.701 205.085 161.161 204.845C161.621 204.595 161.991 204.225 162.271 203.735C162.561 203.235 162.706 202.625 162.706 201.905C162.706 201.185 162.566 200.58 162.286 200.09C162.006 199.59 161.636 199.22 161.176 198.98C160.716 198.73 160.216 198.605 159.676 198.605C159.136 198.605 158.636 198.73 158.176 198.98C157.716 199.22 157.346 199.59 157.066 200.09C156.796 200.58 156.661 201.185 156.661 201.905C156.661 202.625 156.796 203.235 157.066 203.735C157.346 204.225 157.711 204.595 158.161 204.845C158.621 205.085 159.121 205.205 159.661 205.205ZM166.75 199.265C166.98 198.755 167.33 198.36 167.8 198.08C168.28 197.8 168.865 197.66 169.555 197.66V198.755H169.27C168.51 198.755 167.9 198.96 167.44 199.37C166.98 199.78 166.75 200.465 166.75 201.425V206H165.7V197.81H166.75V199.265ZM186.289 197.336C187.233 197.512 188.033 197.992 188.689 198.776C189.345 199.56 189.673 200.472 189.673 201.512C189.673 202.36 189.457 203.128 189.025 203.816C188.609 204.488 187.993 205.024 187.177 205.424C186.361 205.808 185.385 206 184.249 206H178.441V189.224H184.081C185.777 189.224 187.065 189.616 187.945 190.4C188.841 191.184 189.289 192.2 189.289 193.448C189.289 194.488 189.009 195.336 188.449 195.992C187.889 196.632 187.169 197.08 186.289 197.336ZM180.121 196.64H184.033C185.169 196.64 186.041 196.376 186.649 195.848C187.273 195.304 187.585 194.56 187.585 193.616C187.585 192.688 187.273 191.96 186.649 191.432C186.041 190.904 185.145 190.64 183.961 190.64H180.121V196.64ZM184.129 204.584C185.345 204.584 186.289 204.296 186.961 203.72C187.649 203.144 187.993 202.352 187.993 201.344C187.993 200.336 187.633 199.536 186.913 198.944C186.209 198.336 185.257 198.032 184.057 198.032H180.121V204.584H184.129ZM204.617 198.776C204.617 199.352 204.601 199.792 204.569 200.096H193.697C193.745 201.088 193.985 201.936 194.417 202.64C194.849 203.344 195.417 203.88 196.121 204.248C196.825 204.6 197.593 204.776 198.425 204.776C199.513 204.776 200.425 204.512 201.161 203.984C201.913 203.456 202.409 202.744 202.649 201.848H204.425C204.105 203.128 203.417 204.176 202.361 204.992C201.321 205.792 200.009 206.192 198.425 206.192C197.193 206.192 196.089 205.92 195.113 205.376C194.137 204.816 193.369 204.032 192.809 203.024C192.265 202 191.993 200.808 191.993 199.448C191.993 198.088 192.265 196.896 192.809 195.872C193.353 194.848 194.113 194.064 195.089 193.52C196.065 192.976 197.177 192.704 198.425 192.704C199.673 192.704 200.761 192.976 201.689 193.52C202.633 194.064 203.353 194.8 203.849 195.728C204.361 196.64 204.617 197.656 204.617 198.776ZM202.913 198.728C202.929 197.752 202.729 196.92 202.313 196.232C201.913 195.544 201.361 195.024 200.657 194.672C199.953 194.32 199.185 194.144 198.353 194.144C197.105 194.144 196.041 194.544 195.161 195.344C194.281 196.144 193.793 197.272 193.697 198.728H202.913ZM209.371 195.224C209.739 194.408 210.299 193.776 211.051 193.328C211.819 192.88 212.755 192.656 213.859 192.656V194.408H213.403C212.187 194.408 211.211 194.736 210.475 195.392C209.739 196.048 209.371 197.144 209.371 198.68V206H207.691V192.896H209.371V195.224ZM222.53 192.656C224.098 192.656 225.378 193.144 226.37 194.12C227.362 195.08 227.858 196.48 227.858 198.32V206H226.202V198.512C226.202 197.088 225.842 196 225.122 195.248C224.418 194.496 223.45 194.12 222.218 194.12C220.954 194.12 219.946 194.52 219.194 195.32C218.442 196.12 218.066 197.296 218.066 198.848V206H216.386V192.896H218.066V195.128C218.482 194.328 219.082 193.72 219.866 193.304C220.65 192.872 221.538 192.656 222.53 192.656ZM230.805 199.424C230.805 198.08 231.069 196.904 231.597 195.896C232.141 194.872 232.885 194.088 233.829 193.544C234.789 192.984 235.869 192.704 237.069 192.704C238.317 192.704 239.389 192.992 240.285 193.568C241.197 194.144 241.853 194.88 242.253 195.776V192.896H243.933V206H242.253V203.096C241.837 203.992 241.173 204.736 240.261 205.328C239.365 205.904 238.293 206.192 237.045 206.192C235.861 206.192 234.789 205.912 233.829 205.352C232.885 204.792 232.141 204 231.597 202.976C231.069 201.952 230.805 200.768 230.805 199.424ZM242.253 199.448C242.253 198.392 242.037 197.464 241.605 196.664C241.173 195.864 240.581 195.248 239.829 194.816C239.093 194.384 238.277 194.168 237.381 194.168C236.453 194.168 235.621 194.376 234.885 194.792C234.149 195.208 233.565 195.816 233.133 196.616C232.717 197.4 232.509 198.336 232.509 199.424C232.509 200.496 232.717 201.44 233.133 202.256C233.565 203.056 234.149 203.672 234.885 204.104C235.621 204.52 236.453 204.728 237.381 204.728C238.277 204.728 239.093 204.512 239.829 204.08C240.581 203.648 241.173 203.032 241.605 202.232C242.037 201.432 242.253 200.504 242.253 199.448ZM249.449 195.224C249.817 194.408 250.377 193.776 251.129 193.328C251.897 192.88 252.833 192.656 253.937 192.656V194.408H253.481C252.265 194.408 251.289 194.736 250.553 195.392C249.817 196.048 249.449 197.144 249.449 198.68V206H247.769V192.896H249.449V195.224ZM255.696 199.424C255.696 198.08 255.968 196.904 256.512 195.896C257.056 194.872 257.8 194.088 258.744 193.544C259.704 192.984 260.784 192.704 261.984 192.704C263.136 192.704 264.176 192.984 265.104 193.544C266.032 194.104 266.712 194.832 267.144 195.728V188.24H268.824V206H267.144V203.072C266.744 203.984 266.088 204.736 265.176 205.328C264.264 205.904 263.192 206.192 261.96 206.192C260.76 206.192 259.68 205.912 258.72 205.352C257.776 204.792 257.032 204 256.488 202.976C255.96 201.952 255.696 200.768 255.696 199.424ZM267.144 199.448C267.144 198.392 266.928 197.464 266.496 196.664C266.064 195.864 265.472 195.248 264.72 194.816C263.984 194.384 263.168 194.168 262.272 194.168C261.344 194.168 260.512 194.376 259.776 194.792C259.04 195.208 258.456 195.816 258.024 196.616C257.608 197.4 257.4 198.336 257.4 199.424C257.4 200.496 257.608 201.44 258.024 202.256C258.456 203.056 259.04 203.672 259.776 204.104C260.512 204.52 261.344 204.728 262.272 204.728C263.168 204.728 263.984 204.512 264.72 204.08C265.472 203.648 266.064 203.032 266.496 202.232C266.928 201.432 267.144 200.504 267.144 199.448ZM278.395 206.192C277.163 206.192 276.051 205.92 275.059 205.376C274.083 204.816 273.307 204.032 272.731 203.024C272.171 202 271.891 200.808 271.891 199.448C271.891 198.088 272.179 196.904 272.755 195.896C273.331 194.872 274.115 194.088 275.107 193.544C276.099 192.984 277.211 192.704 278.443 192.704C279.675 192.704 280.787 192.984 281.779 193.544C282.787 194.088 283.571 194.872 284.131 195.896C284.707 196.904 284.995 198.088 284.995 199.448C284.995 200.792 284.707 201.976 284.131 203C283.555 204.024 282.763 204.816 281.755 205.376C280.747 205.92 279.627 206.192 278.395 206.192ZM278.395 204.728C279.259 204.728 280.059 204.536 280.795 204.152C281.531 203.752 282.123 203.16 282.571 202.376C283.035 201.576 283.267 200.6 283.267 199.448C283.267 198.296 283.043 197.328 282.595 196.544C282.147 195.744 281.555 195.152 280.819 194.768C280.083 194.368 279.283 194.168 278.419 194.168C277.555 194.168 276.755 194.368 276.019 194.768C275.283 195.152 274.691 195.744 274.243 196.544C273.811 197.328 273.595 198.296 273.595 199.448C273.595 200.6 273.811 201.576 274.243 202.376C274.691 203.16 275.275 203.752 275.995 204.152C276.731 204.536 277.531 204.728 278.395 204.728ZM304.364 202.016H296.732L295.268 206H293.492L299.612 189.44H301.508L307.604 206H305.828L304.364 202.016ZM303.86 200.624L300.548 191.552L297.236 200.624H303.86ZM310.588 206.12C310.236 206.12 309.94 206 309.7 205.76C309.476 205.52 309.364 205.224 309.364 204.872C309.364 204.52 309.476 204.232 309.7 204.008C309.94 203.768 310.236 203.648 310.588 203.648C310.924 203.648 311.204 203.768 311.428 204.008C311.668 204.232 311.788 204.52 311.788 204.872C311.788 205.224 311.668 205.52 311.428 205.76C311.204 206 310.924 206.12 310.588 206.12ZM337.637 189.44V206H335.957V192.776L330.053 206H328.829L322.925 192.824V206H321.245V189.44H323.021L329.429 203.792L335.837 189.44H337.637ZM340.68 199.424C340.68 198.08 340.944 196.904 341.472 195.896C342.016 194.872 342.76 194.088 343.704 193.544C344.664 192.984 345.744 192.704 346.944 192.704C348.192 192.704 349.264 192.992 350.16 193.568C351.072 194.144 351.728 194.88 352.128 195.776V192.896H353.808V206H352.128V203.096C351.712 203.992 351.048 204.736 350.136 205.328C349.24 205.904 348.168 206.192 346.92 206.192C345.736 206.192 344.664 205.912 343.704 205.352C342.76 204.792 342.016 204 341.472 202.976C340.944 201.952 340.68 200.768 340.68 199.424ZM352.128 199.448C352.128 198.392 351.912 197.464 351.48 196.664C351.048 195.864 350.456 195.248 349.704 194.816C348.968 194.384 348.152 194.168 347.256 194.168C346.328 194.168 345.496 194.376 344.76 194.792C344.024 195.208 343.44 195.816 343.008 196.616C342.592 197.4 342.384 198.336 342.384 199.424C342.384 200.496 342.592 201.44 343.008 202.256C343.44 203.056 344.024 203.672 344.76 204.104C345.496 204.52 346.328 204.728 347.256 204.728C348.152 204.728 348.968 204.512 349.704 204.08C350.456 203.648 351.048 203.032 351.48 202.232C351.912 201.432 352.128 200.504 352.128 199.448ZM349.872 189.032L344.952 191.888V190.592L349.872 187.52V189.032ZM359.324 195.224C359.692 194.408 360.252 193.776 361.004 193.328C361.772 192.88 362.708 192.656 363.812 192.656V194.408H363.356C362.14 194.408 361.164 194.736 360.428 195.392C359.692 196.048 359.324 197.144 359.324 198.68V206H357.644V192.896H359.324V195.224ZM365.571 199.424C365.571 198.08 365.843 196.904 366.387 195.896C366.931 194.872 367.675 194.088 368.619 193.544C369.579 192.984 370.659 192.704 371.859 192.704C373.091 192.704 374.163 193 375.075 193.592C375.987 194.168 376.635 194.896 377.019 195.776V192.896H378.699V212.192H377.019V203.12C376.635 204 375.979 204.736 375.051 205.328C374.139 205.904 373.059 206.192 371.811 206.192C370.627 206.192 369.555 205.912 368.595 205.352C367.651 204.792 366.907 204 366.363 202.976C365.835 201.952 365.571 200.768 365.571 199.424ZM377.019 199.448C377.019 198.392 376.803 197.464 376.371 196.664C375.939 195.864 375.347 195.248 374.595 194.816C373.859 194.384 373.043 194.168 372.147 194.168C371.219 194.168 370.387 194.376 369.651 194.792C368.915 195.208 368.331 195.816 367.899 196.616C367.483 197.4 367.275 198.336 367.275 199.424C367.275 200.496 367.483 201.44 367.899 202.256C368.331 203.056 368.915 203.672 369.651 204.104C370.387 204.52 371.219 204.728 372.147 204.728C373.043 204.728 373.859 204.512 374.595 204.08C375.347 203.648 375.939 203.032 376.371 202.232C376.803 201.432 377.019 200.504 377.019 199.448ZM393.886 192.896V206H392.206V203.696C391.822 204.512 391.23 205.136 390.43 205.568C389.63 206 388.734 206.216 387.742 206.216C386.174 206.216 384.894 205.736 383.902 204.776C382.91 203.8 382.414 202.392 382.414 200.552V192.896H384.07V200.36C384.07 201.784 384.422 202.872 385.126 203.624C385.846 204.376 386.822 204.752 388.054 204.752C389.318 204.752 390.326 204.352 391.078 203.552C391.83 202.752 392.206 201.576 392.206 200.024V192.896H393.886ZM409.578 198.776C409.578 199.352 409.562 199.792 409.53 200.096H398.658C398.706 201.088 398.946 201.936 399.378 202.64C399.81 203.344 400.378 203.88 401.082 204.248C401.786 204.6 402.554 204.776 403.386 204.776C404.474 204.776 405.386 204.512 406.122 203.984C406.874 203.456 407.37 202.744 407.61 201.848H409.386C409.066 203.128 408.378 204.176 407.322 204.992C406.282 205.792 404.97 206.192 403.386 206.192C402.154 206.192 401.05 205.92 400.074 205.376C399.098 204.816 398.33 204.032 397.77 203.024C397.226 202 396.954 200.808 396.954 199.448C396.954 198.088 397.226 196.896 397.77 195.872C398.314 194.848 399.074 194.064 400.05 193.52C401.026 192.976 402.138 192.704 403.386 192.704C404.634 192.704 405.722 192.976 406.65 193.52C407.594 194.064 408.314 194.8 408.81 195.728C409.322 196.64 409.578 197.656 409.578 198.776ZM407.874 198.728C407.89 197.752 407.69 196.92 407.274 196.232C406.874 195.544 406.322 195.024 405.618 194.672C404.914 194.32 404.146 194.144 403.314 194.144C402.066 194.144 401.002 194.544 400.122 195.344C399.242 196.144 398.754 197.272 398.658 198.728H407.874ZM413.539 204.608H420.403V206H411.619V204.608L418.363 194.288H411.739V192.896H420.283V194.288L413.539 204.608ZM437.295 183.44L430.671 209.984H429.015L435.591 183.44H437.295ZM451.979 189.224C453.835 189.224 455.427 189.56 456.755 190.232C458.083 190.904 459.099 191.872 459.803 193.136C460.507 194.4 460.859 195.904 460.859 197.648C460.859 199.376 460.507 200.872 459.803 202.136C459.099 203.384 458.083 204.344 456.755 205.016C455.427 205.672 453.835 206 451.979 206H447.011V189.224H451.979ZM451.979 204.608C454.315 204.608 456.091 204 457.307 202.784C458.539 201.552 459.155 199.84 459.155 197.648C459.155 195.44 458.539 193.72 457.307 192.488C456.091 191.24 454.315 190.616 451.979 190.616H448.691V204.608H451.979ZM475.812 198.776C475.812 199.352 475.796 199.792 475.764 200.096H464.892C464.94 201.088 465.18 201.936 465.612 202.64C466.044 203.344 466.612 203.88 467.316 204.248C468.02 204.6 468.788 204.776 469.62 204.776C470.708 204.776 471.62 204.512 472.356 203.984C473.108 203.456 473.604 202.744 473.844 201.848H475.62C475.3 203.128 474.612 204.176 473.556 204.992C472.516 205.792 471.204 206.192 469.62 206.192C468.388 206.192 467.284 205.92 466.308 205.376C465.332 204.816 464.564 204.032 464.004 203.024C463.46 202 463.188 200.808 463.188 199.448C463.188 198.088 463.46 196.896 464.004 195.872C464.548 194.848 465.308 194.064 466.284 193.52C467.26 192.976 468.372 192.704 469.62 192.704C470.868 192.704 471.956 192.976 472.884 193.52C473.828 194.064 474.548 194.8 475.044 195.728C475.556 196.64 475.812 197.656 475.812 198.776ZM474.108 198.728C474.124 197.752 473.924 196.92 473.508 196.232C473.108 195.544 472.556 195.024 471.852 194.672C471.148 194.32 470.38 194.144 469.548 194.144C468.3 194.144 467.236 194.544 466.356 195.344C465.476 196.144 464.988 197.272 464.892 198.728H474.108ZM483.398 206.192C481.894 206.192 480.662 205.848 479.702 205.16C478.758 204.456 478.23 203.504 478.118 202.304H479.846C479.926 203.04 480.27 203.64 480.878 204.104C481.502 204.552 482.334 204.776 483.374 204.776C484.286 204.776 484.998 204.56 485.51 204.128C486.038 203.696 486.302 203.16 486.302 202.52C486.302 202.072 486.158 201.704 485.87 201.416C485.582 201.128 485.214 200.904 484.766 200.744C484.334 200.568 483.742 200.384 482.99 200.192C482.014 199.936 481.222 199.68 480.614 199.424C480.006 199.168 479.486 198.792 479.054 198.296C478.638 197.784 478.43 197.104 478.43 196.256C478.43 195.616 478.622 195.024 479.006 194.48C479.39 193.936 479.934 193.504 480.638 193.184C481.342 192.864 482.142 192.704 483.038 192.704C484.446 192.704 485.582 193.064 486.446 193.784C487.31 194.488 487.774 195.464 487.838 196.712H486.158C486.11 195.944 485.806 195.328 485.246 194.864C484.702 194.384 483.95 194.144 482.99 194.144C482.142 194.144 481.454 194.344 480.926 194.744C480.398 195.144 480.134 195.64 480.134 196.232C480.134 196.744 480.286 197.168 480.59 197.504C480.91 197.824 481.302 198.08 481.766 198.272C482.23 198.448 482.854 198.648 483.638 198.872C484.582 199.128 485.334 199.376 485.894 199.616C486.454 199.856 486.934 200.208 487.334 200.672C487.734 201.136 487.942 201.752 487.958 202.52C487.958 203.224 487.766 203.856 487.382 204.416C486.998 204.96 486.462 205.392 485.774 205.712C485.086 206.032 484.294 206.192 483.398 206.192ZM490.352 199.424C490.352 198.08 490.616 196.904 491.144 195.896C491.688 194.872 492.432 194.088 493.376 193.544C494.336 192.984 495.416 192.704 496.616 192.704C497.864 192.704 498.936 192.992 499.832 193.568C500.744 194.144 501.4 194.88 501.8 195.776V192.896H503.48V206H501.8V203.096C501.384 203.992 500.72 204.736 499.808 205.328C498.912 205.904 497.84 206.192 496.592 206.192C495.408 206.192 494.336 205.912 493.376 205.352C492.432 204.792 491.688 204 491.144 202.976C490.616 201.952 490.352 200.768 490.352 199.424ZM501.8 199.448C501.8 198.392 501.584 197.464 501.152 196.664C500.72 195.864 500.128 195.248 499.376 194.816C498.64 194.384 497.824 194.168 496.928 194.168C496 194.168 495.168 194.376 494.432 194.792C493.696 195.208 493.112 195.816 492.68 196.616C492.264 197.4 492.056 198.336 492.056 199.424C492.056 200.496 492.264 201.44 492.68 202.256C493.112 203.056 493.696 203.672 494.432 204.104C495.168 204.52 496 204.728 496.928 204.728C497.824 204.728 498.64 204.512 499.376 204.08C500.128 203.648 500.72 203.032 501.152 202.232C501.584 201.432 501.8 200.504 501.8 199.448ZM508.996 195.224C509.364 194.408 509.924 193.776 510.676 193.328C511.444 192.88 512.38 192.656 513.484 192.656V194.408H513.028C511.812 194.408 510.836 194.736 510.1 195.392C509.364 196.048 508.996 197.144 508.996 198.68V206H507.316V192.896H508.996V195.224ZM517.691 195.224C518.059 194.408 518.619 193.776 519.371 193.328C520.139 192.88 521.075 192.656 522.179 192.656V194.408H521.723C520.507 194.408 519.531 194.736 518.795 195.392C518.059 196.048 517.691 197.144 517.691 198.68V206H516.011V192.896H517.691V195.224ZM530.442 206.192C529.21 206.192 528.098 205.92 527.106 205.376C526.13 204.816 525.354 204.032 524.778 203.024C524.218 202 523.938 200.808 523.938 199.448C523.938 198.088 524.226 196.904 524.802 195.896C525.378 194.872 526.162 194.088 527.154 193.544C528.146 192.984 529.258 192.704 530.49 192.704C531.722 192.704 532.834 192.984 533.826 193.544C534.834 194.088 535.618 194.872 536.178 195.896C536.754 196.904 537.042 198.088 537.042 199.448C537.042 200.792 536.754 201.976 536.178 203C535.602 204.024 534.81 204.816 533.802 205.376C532.794 205.92 531.674 206.192 530.442 206.192ZM530.442 204.728C531.306 204.728 532.106 204.536 532.842 204.152C533.578 203.752 534.17 203.16 534.618 202.376C535.082 201.576 535.314 200.6 535.314 199.448C535.314 198.296 535.09 197.328 534.642 196.544C534.194 195.744 533.602 195.152 532.866 194.768C532.13 194.368 531.33 194.168 530.466 194.168C529.602 194.168 528.802 194.368 528.066 194.768C527.33 195.152 526.738 195.744 526.29 196.544C525.858 197.328 525.642 198.296 525.642 199.448C525.642 200.6 525.858 201.576 526.29 202.376C526.738 203.16 527.322 203.752 528.042 204.152C528.778 204.536 529.578 204.728 530.442 204.728ZM541.785 188.24V206H540.105V188.24H541.785ZM547.269 188.24V206H545.589V188.24H547.269ZM556.809 206.192C555.577 206.192 554.465 205.92 553.473 205.376C552.497 204.816 551.721 204.032 551.145 203.024C550.585 202 550.305 200.808 550.305 199.448C550.305 198.088 550.593 196.904 551.169 195.896C551.745 194.872 552.529 194.088 553.521 193.544C554.513 192.984 555.625 192.704 556.857 192.704C558.089 192.704 559.201 192.984 560.193 193.544C561.201 194.088 561.985 194.872 562.545 195.896C563.121 196.904 563.409 198.088 563.409 199.448C563.409 200.792 563.121 201.976 562.545 203C561.969 204.024 561.177 204.816 560.169 205.376C559.161 205.92 558.041 206.192 556.809 206.192ZM556.809 204.728C557.673 204.728 558.473 204.536 559.209 204.152C559.945 203.752 560.537 203.16 560.985 202.376C561.449 201.576 561.681 200.6 561.681 199.448C561.681 198.296 561.457 197.328 561.009 196.544C560.561 195.744 559.969 195.152 559.233 194.768C558.497 194.368 557.697 194.168 556.833 194.168C555.969 194.168 555.169 194.368 554.433 194.768C553.697 195.152 553.105 195.744 552.657 196.544C552.225 197.328 552.009 198.296 552.009 199.448C552.009 200.6 552.225 201.576 552.657 202.376C553.105 203.16 553.689 203.752 554.409 204.152C555.145 204.536 555.945 204.728 556.809 204.728ZM572.29 199.424C572.29 198.08 572.562 196.904 573.106 195.896C573.65 194.872 574.394 194.088 575.338 193.544C576.298 192.984 577.378 192.704 578.578 192.704C579.73 192.704 580.77 192.984 581.698 193.544C582.626 194.104 583.306 194.832 583.738 195.728V188.24H585.418V206H583.738V203.072C583.338 203.984 582.682 204.736 581.77 205.328C580.858 205.904 579.786 206.192 578.554 206.192C577.354 206.192 576.274 205.912 575.314 205.352C574.37 204.792 573.626 204 573.082 202.976C572.554 201.952 572.29 200.768 572.29 199.424ZM583.738 199.448C583.738 198.392 583.522 197.464 583.09 196.664C582.658 195.864 582.066 195.248 581.314 194.816C580.578 194.384 579.762 194.168 578.866 194.168C577.938 194.168 577.106 194.376 576.37 194.792C575.634 195.208 575.05 195.816 574.618 196.616C574.202 197.4 573.994 198.336 573.994 199.424C573.994 200.496 574.202 201.44 574.618 202.256C575.05 203.056 575.634 203.672 576.37 204.104C577.106 204.52 577.938 204.728 578.866 204.728C579.762 204.728 580.578 204.512 581.314 204.08C582.066 203.648 582.658 203.032 583.09 202.232C583.522 201.432 583.738 200.504 583.738 199.448ZM601.109 198.776C601.109 199.352 601.093 199.792 601.061 200.096H590.189C590.237 201.088 590.477 201.936 590.909 202.64C591.341 203.344 591.909 203.88 592.613 204.248C593.317 204.6 594.085 204.776 594.917 204.776C596.005 204.776 596.917 204.512 597.653 203.984C598.405 203.456 598.901 202.744 599.141 201.848H600.917C600.597 203.128 599.909 204.176 598.853 204.992C597.813 205.792 596.501 206.192 594.917 206.192C593.685 206.192 592.581 205.92 591.605 205.376C590.629 204.816 589.861 204.032 589.301 203.024C588.757 202 588.485 200.808 588.485 199.448C588.485 198.088 588.757 196.896 589.301 195.872C589.845 194.848 590.605 194.064 591.581 193.52C592.557 192.976 593.669 192.704 594.917 192.704C596.165 192.704 597.253 192.976 598.181 193.52C599.125 194.064 599.845 194.8 600.341 195.728C600.853 196.64 601.109 197.656 601.109 198.776ZM599.405 198.728C599.421 197.752 599.221 196.92 598.805 196.232C598.405 195.544 597.853 195.024 597.149 194.672C596.445 194.32 595.677 194.144 594.845 194.144C593.597 194.144 592.533 194.544 591.653 195.344C590.773 196.144 590.285 197.272 590.189 198.728H599.405ZM615.281 206.192C613.777 206.192 612.545 205.848 611.585 205.16C610.641 204.456 610.113 203.504 610.001 202.304H611.729C611.809 203.04 612.153 203.64 612.761 204.104C613.385 204.552 614.217 204.776 615.257 204.776C616.169 204.776 616.881 204.56 617.393 204.128C617.921 203.696 618.185 203.16 618.185 202.52C618.185 202.072 618.041 201.704 617.753 201.416C617.465 201.128 617.097 200.904 616.649 200.744C616.217 200.568 615.625 200.384 614.873 200.192C613.897 199.936 613.105 199.68 612.497 199.424C611.889 199.168 611.369 198.792 610.937 198.296C610.521 197.784 610.313 197.104 610.313 196.256C610.313 195.616 610.505 195.024 610.889 194.48C611.273 193.936 611.817 193.504 612.521 193.184C613.225 192.864 614.025 192.704 614.921 192.704C616.329 192.704 617.465 193.064 618.329 193.784C619.193 194.488 619.657 195.464 619.721 196.712H618.041C617.993 195.944 617.689 195.328 617.129 194.864C616.585 194.384 615.833 194.144 614.873 194.144C614.025 194.144 613.337 194.344 612.809 194.744C612.281 195.144 612.017 195.64 612.017 196.232C612.017 196.744 612.169 197.168 612.473 197.504C612.793 197.824 613.185 198.08 613.649 198.272C614.113 198.448 614.737 198.648 615.521 198.872C616.465 199.128 617.217 199.376 617.777 199.616C618.337 199.856 618.817 200.208 619.217 200.672C619.617 201.136 619.825 201.752 619.841 202.52C619.841 203.224 619.649 203.856 619.265 204.416C618.881 204.96 618.345 205.392 617.657 205.712C616.969 206.032 616.177 206.192 615.281 206.192ZM628.739 206.192C627.507 206.192 626.395 205.92 625.403 205.376C624.427 204.816 623.651 204.032 623.075 203.024C622.515 202 622.235 200.808 622.235 199.448C622.235 198.088 622.523 196.904 623.099 195.896C623.675 194.872 624.459 194.088 625.451 193.544C626.443 192.984 627.555 192.704 628.787 192.704C630.019 192.704 631.131 192.984 632.123 193.544C633.131 194.088 633.915 194.872 634.475 195.896C635.051 196.904 635.339 198.088 635.339 199.448C635.339 200.792 635.051 201.976 634.475 203C633.899 204.024 633.107 204.816 632.099 205.376C631.091 205.92 629.971 206.192 628.739 206.192ZM628.739 204.728C629.603 204.728 630.403 204.536 631.139 204.152C631.875 203.752 632.467 203.16 632.915 202.376C633.379 201.576 633.611 200.6 633.611 199.448C633.611 198.296 633.387 197.328 632.939 196.544C632.491 195.744 631.899 195.152 631.163 194.768C630.427 194.368 629.627 194.168 628.763 194.168C627.899 194.168 627.099 194.368 626.363 194.768C625.627 195.152 625.035 195.744 624.587 196.544C624.155 197.328 623.939 198.296 623.939 199.448C623.939 200.6 624.155 201.576 624.587 202.376C625.035 203.16 625.619 203.752 626.339 204.152C627.075 204.536 627.875 204.728 628.739 204.728ZM643.561 194.312H640.513V206H638.833V194.312H637.009V192.896H638.833V191.984C638.833 190.56 639.193 189.512 639.913 188.84C640.649 188.168 641.833 187.832 643.465 187.832V189.272C642.377 189.272 641.609 189.48 641.161 189.896C640.729 190.312 640.513 191.008 640.513 191.984V192.896H643.561V194.312ZM648.39 194.312V202.448C648.39 203.248 648.542 203.8 648.846 204.104C649.15 204.408 649.686 204.56 650.454 204.56H651.99V206H650.19C649.006 206 648.126 205.728 647.55 205.184C646.974 204.624 646.686 203.712 646.686 202.448V194.312H644.862V192.896H646.686V189.608H648.39V192.896H651.99V194.312H648.39ZM672.041 192.896L667.937 206H666.257L662.633 195.008L659.009 206H657.305L653.201 192.896H654.905L658.169 204.296L661.841 192.896H663.521L667.145 204.32L670.385 192.896H672.041ZM673.563 199.424C673.563 198.08 673.827 196.904 674.355 195.896C674.899 194.872 675.643 194.088 676.587 193.544C677.547 192.984 678.627 192.704 679.827 192.704C681.075 192.704 682.147 192.992 683.043 193.568C683.955 194.144 684.611 194.88 685.011 195.776V192.896H686.691V206H685.011V203.096C684.595 203.992 683.931 204.736 683.019 205.328C682.123 205.904 681.051 206.192 679.803 206.192C678.619 206.192 677.547 205.912 676.587 205.352C675.643 204.792 674.899 204 674.355 202.976C673.827 201.952 673.563 200.768 673.563 199.424ZM685.011 199.448C685.011 198.392 684.795 197.464 684.363 196.664C683.931 195.864 683.339 195.248 682.587 194.816C681.851 194.384 681.035 194.168 680.139 194.168C679.211 194.168 678.379 194.376 677.643 194.792C676.907 195.208 676.323 195.816 675.891 196.616C675.475 197.4 675.267 198.336 675.267 199.424C675.267 200.496 675.475 201.44 675.891 202.256C676.323 203.056 676.907 203.672 677.643 204.104C678.379 204.52 679.211 204.728 680.139 204.728C681.035 204.728 681.851 204.512 682.587 204.08C683.339 203.648 683.931 203.032 684.363 202.232C684.795 201.432 685.011 200.504 685.011 199.448ZM692.206 195.224C692.574 194.408 693.134 193.776 693.886 193.328C694.654 192.88 695.59 192.656 696.694 192.656V194.408H696.238C695.022 194.408 694.046 194.736 693.31 195.392C692.574 196.048 692.206 197.144 692.206 198.68V206H690.526V192.896H692.206V195.224ZM711.078 198.776C711.078 199.352 711.062 199.792 711.03 200.096H700.158C700.206 201.088 700.446 201.936 700.878 202.64C701.31 203.344 701.878 203.88 702.582 204.248C703.286 204.6 704.054 204.776 704.886 204.776C705.974 204.776 706.886 204.512 707.622 203.984C708.374 203.456 708.87 202.744 709.11 201.848H710.886C710.566 203.128 709.878 204.176 708.822 204.992C707.782 205.792 706.47 206.192 704.886 206.192C703.654 206.192 702.55 205.92 701.574 205.376C700.598 204.816 699.83 204.032 699.27 203.024C698.726 202 698.454 200.808 698.454 199.448C698.454 198.088 698.726 196.896 699.27 195.872C699.814 194.848 700.574 194.064 701.55 193.52C702.526 192.976 703.638 192.704 704.886 192.704C706.134 192.704 707.222 192.976 708.15 193.52C709.094 194.064 709.814 194.8 710.31 195.728C710.822 196.64 711.078 197.656 711.078 198.776ZM709.374 198.728C709.39 197.752 709.19 196.92 708.774 196.232C708.374 195.544 707.822 195.024 707.118 194.672C706.414 194.32 705.646 194.144 704.814 194.144C703.566 194.144 702.502 194.544 701.622 195.344C700.742 196.144 700.254 197.272 700.158 198.728H709.374ZM714.439 206.12C714.087 206.12 713.791 206 713.551 205.76C713.327 205.52 713.215 205.224 713.215 204.872C713.215 204.52 713.327 204.232 713.551 204.008C713.791 203.768 714.087 203.648 714.439 203.648C714.775 203.648 715.055 203.768 715.279 204.008C715.519 204.232 715.639 204.52 715.639 204.872C715.639 205.224 715.519 205.52 715.279 205.76C715.055 206 714.775 206.12 714.439 206.12Z" fill="white"/>
<!-- <circle cx="431" cy="109" r="25" fill="white"/> -->
</svg>
